<svg width="170" height="170" viewBox="0 0 170 170" fill="none" xmlns="http://www.w3.org/2000/svg">
<circle cx="85" cy="85" r="80" stroke="url(#paint0_linear_1_93)" stroke-width="9"/>
<path d="M32.4708 121L29.6817 110.818H30.6263L32.9331 119.573H33.0127L35.3195 110.818H36.3934L38.7002 119.573H38.7797L41.0866 110.818H42.0361L39.2471 121H38.2528L35.8912 112.364H35.8266L33.4651 121H32.4708ZM42.9385 121H41.964L45.6679 110.818H46.6622L50.366 121H49.3916L46.1998 112.026H46.1302L42.9385 121ZM43.6395 117.097H48.6906V117.933H43.6395V117.097ZM52.1111 121V110.818H53.0407V120.165H57.893V121H52.1111ZM58.0161 111.653V110.818H65.3989V111.653H62.1723V121H61.2426V111.653H58.0161ZM67.4919 121V110.818H73.3982V111.653H68.4216V115.487H73.085V116.322H68.4216V120.165H73.4976V121H67.4919ZM75.8044 121V110.818H79.0906C79.8132 110.818 80.4164 110.949 80.9003 111.211C81.3875 111.469 81.7538 111.829 81.999 112.29C82.2476 112.747 82.3719 113.272 82.3719 113.866C82.3719 114.459 82.2476 114.983 81.999 115.437C81.7538 115.891 81.3892 116.246 80.9053 116.501C80.4214 116.756 79.8215 116.884 79.1056 116.884H76.3066V116.033H79.0807C79.611 116.033 80.0518 115.946 80.4031 115.77C80.7578 115.594 81.0213 115.344 81.1936 115.019C81.3693 114.694 81.4571 114.31 81.4571 113.866C81.4571 113.422 81.3693 113.034 81.1936 112.702C81.018 112.368 80.7528 112.109 80.3982 111.927C80.0468 111.745 79.6027 111.653 79.0658 111.653H76.7341V121H75.8044ZM80.2938 116.406L82.7994 121H81.7256L79.2448 116.406H80.2938ZM88.574 121V110.818H94.4653V111.653H89.5036V115.487H94.0029V116.322H89.5036V121H88.574ZM103.563 110.818H104.493V117.56C104.493 118.252 104.331 118.872 104.006 119.419C103.681 119.963 103.229 120.392 102.649 120.707C102.072 121.018 101.401 121.174 100.635 121.174C99.8727 121.174 99.2016 121.017 98.6215 120.702C98.0415 120.387 97.5891 119.958 97.2643 119.414C96.9395 118.871 96.7771 118.252 96.7771 117.56V110.818H97.7068V117.495C97.7068 118.035 97.8277 118.518 98.0697 118.942C98.3116 119.363 98.6514 119.694 99.0889 119.936C99.5297 120.178 100.045 120.299 100.635 120.299C101.225 120.299 101.74 120.178 102.181 119.936C102.622 119.694 102.962 119.363 103.2 118.942C103.442 118.518 103.563 118.035 103.563 117.495V110.818ZM107.195 121V110.818H110.481C111.204 110.818 111.807 110.949 112.291 111.211C112.778 111.469 113.144 111.829 113.39 112.29C113.638 112.747 113.763 113.272 113.763 113.866C113.763 114.459 113.638 114.983 113.39 115.437C113.144 115.891 112.78 116.246 112.296 116.501C111.812 116.756 111.212 116.884 110.496 116.884H107.697V116.033H110.471C111.002 116.033 111.442 115.946 111.794 115.77C112.148 115.594 112.412 115.344 112.584 115.019C112.76 114.694 112.848 114.31 112.848 113.866C112.848 113.422 112.76 113.034 112.584 112.702C112.409 112.368 112.143 112.109 111.789 111.927C111.437 111.745 110.993 111.653 110.456 111.653H108.125V121H107.195ZM111.684 116.406L114.19 121H113.116L110.635 116.406H111.684ZM116.027 121V110.818H119.313C120.036 110.818 120.639 110.949 121.123 111.211C121.61 111.469 121.976 111.829 122.222 112.29C122.47 112.747 122.595 113.272 122.595 113.866C122.595 114.459 122.47 114.983 122.222 115.437C121.976 115.891 121.612 116.246 121.128 116.501C120.644 116.756 120.044 116.884 119.328 116.884H116.529V116.033H119.303C119.834 116.033 120.274 115.946 120.626 115.77C120.98 115.594 121.244 115.344 121.416 115.019C121.592 114.694 121.68 114.31 121.68 113.866C121.68 113.422 121.592 113.034 121.416 112.702C121.241 112.368 120.975 112.109 120.621 111.927C120.27 111.745 119.825 111.653 119.288 111.653H116.957V121H116.027ZM120.516 116.406L123.022 121H121.948L119.467 116.406H120.516ZM124.859 121V110.818H130.765V111.653H125.789V115.487H130.452V116.322H125.789V120.165H130.865V121H124.859ZM133.172 121V110.818H136.458C137.18 110.818 137.784 110.949 138.267 111.211C138.755 111.469 139.121 111.829 139.366 112.29C139.615 112.747 139.739 113.272 139.739 113.866C139.739 114.459 139.615 114.983 139.366 115.437C139.121 115.891 138.756 116.246 138.272 116.501C137.789 116.756 137.189 116.884 136.473 116.884H133.674V116.033H136.448C136.978 116.033 137.419 115.946 137.77 115.77C138.125 115.594 138.388 115.344 138.561 115.019C138.736 114.694 138.824 114.31 138.824 113.866C138.824 113.422 138.736 113.034 138.561 112.702C138.385 112.368 138.12 112.109 137.765 111.927C137.414 111.745 136.97 111.653 136.433 111.653H134.101V121H133.172ZM137.661 116.406L140.167 121H139.093L136.612 116.406H137.661Z" fill="white"/>
<path d="M54.8438 85.2812L63.9062 48.5H68.8125L69.125 56.25L59.4375 94H54.25L54.8438 85.2812ZM49.125 48.5L56.5625 85.1562V94H50.9062L40.5938 48.5H49.125ZM78.5312 85L85.8438 48.5H94.4062L84.0938 94H78.4375L78.5312 85ZM71.1562 48.5L80.2188 85.4062L80.75 94H75.5625L65.9062 56.2188L66.2812 48.5H71.1562ZM108.438 48.5V94H99.8438V48.5H108.438ZM126.781 68.1562V74.9375H106.188V68.1562H126.781ZM129.188 48.5V55.2812H106.188V48.5H129.188Z" fill="white"/>
<defs>
<linearGradient id="paint0_linear_1_93" x1="85" y1="5" x2="85" y2="165" gradientUnits="userSpaceOnUse">
<stop stop-color="#1E555C"/>
<stop offset="0.7" stop-color="#586F67"/>
<stop offset="1" stop-color="#EDB183"/>
</linearGradient>
</defs>
</svg>
